<svg xmlns="http://www.w3.org/2000/svg" width="512" height="512" style="width:256px;height:256px"><path d="M61.938 345.188h388.125c14.813 0 26.828-12.016 26.828-26.828V89.969c0-14.797-12.016-26.813-26.828-26.813H61.938c-14.813 0-26.813 12.016-26.813 26.813V318.36c0 14.812 12 26.828 26.813 26.828zm14.187-246h359.75v203.656H76.125V99.188zm431.906 320.421l-47.844-42.469c-3.078-2.719-7.5-4.266-12.172-4.266H63.984c-4.672 0-9.094 1.547-12.172 4.266L3.969 419.609C1.406 421.875 0 424.797 0 427.813v14.797c0 3.453 3.609 6.234 8.063 6.234h495.875c4.469 0 8.063-2.781 8.063-6.234v-14.797c-.001-3.016-1.407-5.938-3.97-8.204zm-306.89 5.016l13.844-18.719h87.734l13.828 18.719H201.141z" fill="#4b4b4b"/></svg>